<svg xmlns="http://www.w3.org/2000/svg" width="20" height="20" viewbox="0 0 20 20" fill="none"><path fill="currentColor" fill-rule="evenodd" d="M9.664 3.333C6.106 3.333 3.22 6.318 3.22 10s2.885 6.667 6.443 6.667 6.442-2.985 6.442-6.667-2.884-6.667-6.442-6.667ZM1.61 10c0-4.602 3.605-8.333 8.053-8.333 4.447 0 8.053 3.73 8.053 8.333 0 4.602-3.606 8.333-8.053 8.333-4.448 0-8.053-3.73-8.053-8.333Z" clip-rule="evenodd"/><path fill="currentColor" fill-rule="evenodd" d="M6.442 8.333c0-.46.361-.833.806-.833h.008c.445 0 .805.373.805.833 0 .46-.36.834-.805.834h-.008c-.445 0-.806-.373-.806-.834ZM11.274 8.333c0-.46.36-.833.806-.833h.008c.444 0 .805.373.805.833 0 .46-.36.834-.805.834h-.008c-.445 0-.806-.373-.806-.834ZM7.087 11.905a.786.786 0 0 1 1.139.012c.187.198.41.355.658.462a1.954 1.954 0 0 0 1.56 0c.246-.107.47-.264.658-.462a.786.786 0 0 1 1.139-.012c.317.322.322.85.011 1.178a3.62 3.62 0 0 1-1.184.833 3.518 3.518 0 0 1-2.808 0 3.62 3.62 0 0 1-1.185-.833.854.854 0 0 1 .012-1.178Z" clip-rule="evenodd"/></svg>